<svg xmlns="http://www.w3.org/2000/svg" width="24" height="24" fill="none"><path fill="#000" fill-rule="evenodd" d="M12 23c6.075 0 11-4.925 11-11S18.075 1 12 1 1 5.925 1 12s4.925 11 11 11Zm2.958-19.936-1.7-.432v5.246l1.39.008 3.623-2.97L16.86 3.88l-1.901 1.559V3.064ZM9.934 2.4h1.7v6.867h3.51l4.222-3.358 1.06 1.326-4.687 3.727H9.934V2.4ZM3.242 15.393l1.7 1.442v-9.44l-1.7 1.556v6.442Zm5.032 3.472L6.573 20.34V3.744l1.7 1.474v13.647Zm6.684-.136 1.901 1.558 1.412-1.039-3.623-2.967-1.39.007v5.247l1.7-.433V18.73Zm4.408-.703-4.223-3.36h-3.51v6.867H9.934v-8.56h5.805l4.688 3.727-1.061 1.326Zm-2.156-6.058 3.477 2.86 1.083-1.307-1.889-1.553 1.889-1.553-1.083-1.307-3.477 2.86Z" clip-rule="evenodd"/></svg>